<?xml version="1.0" encoding="UTF-8" standalone="no"?>
<!-- Created with Inkscape (http://www.inkscape.org/) -->

<svg
   width="800"
   height="800"
   viewBox="0 0 211.66666 211.66667"
   version="1.1"
   id="svg18697"
   sodipodi:docname="DivvyUp-Logo.svg"
   inkscape:version="1.2.1 (9c6d41e410, 2022-07-14)"
   xmlns:inkscape="http://www.inkscape.org/namespaces/inkscape"
   xmlns:sodipodi="http://sodipodi.sourceforge.net/DTD/sodipodi-0.dtd"
   xmlns="http://www.w3.org/2000/svg"
   xmlns:svg="http://www.w3.org/2000/svg">
  <sodipodi:namedview
     id="namedview18699"
     pagecolor="#ffffff"
     bordercolor="#000000"
     borderopacity="0.25"
     inkscape:showpageshadow="2"
     inkscape:pageopacity="0.0"
     inkscape:pagecheckerboard="0"
     inkscape:deskcolor="#d1d1d1"
     inkscape:document-units="mm"
     showgrid="true"
     inkscape:zoom="1"
     inkscape:cx="477"
     inkscape:cy="414"
     inkscape:window-width="2560"
     inkscape:window-height="1494"
     inkscape:window-x="2869"
     inkscape:window-y="163"
     inkscape:window-maximized="1"
     inkscape:current-layer="layer1">
    <inkscape:grid
       type="xygrid"
       id="grid18701"
       empspacing="20" />
  </sodipodi:namedview>
  <defs
     id="defs18694" />
  <g
     inkscape:label="Layer 1"
     inkscape:groupmode="layer"
     id="layer1">
    <path
       id="path1166"
       style="fill:#000000;stroke-width:1.3141"
       d="M 167.03951,52.449543 154.1556,100.26137 v -0.007 l -88.208415,0.006 14.500696,-46.649762 H 166.68382 V 52.588461 H 79.750483 L 64.929522,100.26031 h -0.04739 l -24.73519,6.77744 0.107755,0.44158 h -0.35219 L 39.6875,108.3889 v 42.06809 h 97.28606 v 0.001 l 17.18054,-12.05266 v -37.12934 h 0.001 v -0.99457 l 17.82394,-14.631898 z m -13.96694,48.826507 -16.52903,5.97616 0.002,0.22712 H 65.317631 v -6.19694 z m -88.720222,0.18488 v 6.0184 H 42.391287 Z" />
    <path
       id="path1120"
       style="color:#000000;fill:#000000;stroke-width:1.4945"
       d="m 99.21965,39.333011 c -13.3747,0 -25.43754,8.061539 -30.555815,20.417715 -5.118274,12.356176 -2.288722,26.582523 7.168616,36.039527 9.457339,9.457027 23.687259,12.289557 36.043869,7.171467 12.35662,-5.118107 20.41535,-17.180532 20.41535,-30.554759 V 71.66016 h -0.7476 -31.57759 V 39.333011 Z" />
  </g>
</svg>
