<?xml version="1.0" encoding="UTF-8" standalone="no"?>
<!-- Created with Inkscape (http://www.inkscape.org/) -->

<svg
   width="800"
   height="800"
   viewBox="0 0 211.66666 211.66667"
   version="1.1"
   id="svg18697"
   sodipodi:docname="DivvyUp-Logo.svg"
   inkscape:version="1.2.1 (9c6d41e410, 2022-07-14)"
   xmlns:inkscape="http://www.inkscape.org/namespaces/inkscape"
   xmlns:sodipodi="http://sodipodi.sourceforge.net/DTD/sodipodi-0.dtd"
   xmlns="http://www.w3.org/2000/svg"
   xmlns:svg="http://www.w3.org/2000/svg">
  <sodipodi:namedview
     id="namedview18699"
     pagecolor="#ffffff"
     bordercolor="#000000"
     borderopacity="0.25"
     inkscape:showpageshadow="2"
     inkscape:pageopacity="0.0"
     inkscape:pagecheckerboard="0"
     inkscape:deskcolor="#d1d1d1"
     inkscape:document-units="mm"
     showgrid="true"
     inkscape:zoom="1"
     inkscape:cx="563"
     inkscape:cy="278.5"
     inkscape:window-width="2560"
     inkscape:window-height="1511"
     inkscape:window-x="2391"
     inkscape:window-y="136"
     inkscape:window-maximized="1"
     inkscape:current-layer="layer1">
    <inkscape:grid
       type="xygrid"
       id="grid18701"
       empspacing="20" />
  </sodipodi:namedview>
  <defs
     id="defs18694" />
  <g
     inkscape:label="Layer 1"
     inkscape:groupmode="layer"
     id="layer1">
    <rect
       style="display:inline;fill:#c3cad8;fill-opacity:1;stroke:#0f2029;stroke-width:2.69478;stroke-dasharray:none;stroke-opacity:1"
       id="rect11790"
       width="208.97188"
       height="208.97188"
       x="1.3473901"
       y="1.3473901"
       ry="10.466775" />
    <path
       id="path1166"
       style="fill:#0f2029;stroke-width:1.3141;fill-opacity:1;stroke:#0f2029;stroke-opacity:1"
       d="M 167.03951,52.449543 154.1556,100.26137 v -0.007 l -88.208415,0.006 14.500696,-46.649762 H 166.68382 V 52.588461 H 79.750483 L 64.929522,100.26031 h -0.04739 l -24.73519,6.77744 0.107755,0.44158 h -0.35219 L 39.6875,108.3889 v 42.06809 h 97.28606 v 0.001 l 17.18054,-12.05266 v -37.12934 h 0.001 v -0.99457 l 17.82394,-14.631898 z m -13.96694,48.826507 -16.52903,5.97616 0.002,0.22712 H 65.317631 v -6.19694 z m -88.720222,0.18488 v 6.0184 H 42.391287 Z" />
    <path
       id="path1120"
       style="color:#000000;fill:#f9d877;fill-opacity:1;stroke:#0f2029;stroke-width:1.4945;stroke-opacity:1"
       d="m 98.293608,39.333011 c -13.3747,0 -25.43754,8.061539 -30.555815,20.417715 -5.118274,12.356176 -2.288722,26.582523 7.168616,36.039527 9.457339,9.457027 23.687259,12.289557 36.043871,7.171467 12.35662,-5.118107 20.41535,-17.180532 20.41535,-30.554759 V 71.66016 h -0.7476 -31.577592 V 39.333011 Z" />
    <path
       style="fill:#ede2dd;fill-opacity:1;stroke:#0f2029;stroke-width:2.5;stroke-opacity:1"
       d="m 449.25,376.07376 c 0,-0.0969 1.40408,-1.27818 3.12018,-2.625 11.4852,-9.01374 23.60483,-23.3627 31.2976,-37.05458 10.26681,-18.27327 15.40505,-37.18595 16.37406,-60.26918 l 0.35157,-8.375 H 439.07171 377.75 V 236.5 205.25 h 124.41488 124.41488 l -18.16097,67.375 c -9.98854,37.05625 -20.3528,75.53125 -23.03169,85.5 l -4.87071,18.125 H 514.8832 c -36.09826,0 -65.6332,-0.0793 -65.6332,-0.17624 z"
       id="path23866"
       transform="scale(0.26458333)" />
    <path
       style="fill:#ede2dd;fill-opacity:1;stroke:#0f2029;stroke-width:2.5;stroke-opacity:1"
       d="m 249.75,394.75 v -9 h 29.93003 29.93002 l 6.69498,3.19526 c 10.98103,5.24084 20.75096,8.4384 32.19497,10.53697 27.99104,5.13292 56.49039,1.07612 81.40439,-11.58766 l 4.59561,-2.33595 64.25,-0.20687 c 35.3375,-0.11377 64.1375,-0.0957 64,0.0402 -0.1375,0.13586 -11.52744,4.32201 -25.31099,9.30256 L 512.37803,403.75 H 381.06401 249.75 Z"
       id="path23868"
       transform="scale(0.26458333)" />
    <path
       style="fill:#ede2dd;fill-opacity:1;stroke:#0f2029;stroke-width:2.5;stroke-opacity:1"
       d="m 253.48208,374.875 c 0.17135,-0.75625 2.51653,-8.42974 5.21152,-17.05221 l 4.89999,-15.67721 2.91344,4.17721 c 6.44846,9.24561 13.74303,17.30292 22.24297,24.56876 2.8875,2.46827 5.46375,4.68367 5.725,4.92311 0.27033,0.24775 -8.52617,0.43534 -20.41473,0.43534 h -20.88973 z"
       id="path23870"
       transform="scale(0.26458333)" />
    <path
       style="fill:#ede2dd;fill-opacity:1;stroke:#0f2029;stroke-width:2.5;stroke-opacity:1"
       d="m 181,403.46353 c 0.5537,-0.22981 58.78867,-16.21353 59.07226,-16.21353 0.0978,0 0.17774,3.7125 0.17774,8.25 v 8.25 l -29.875,-0.0395 c -16.43125,-0.0217 -29.65,-0.13286 -29.375,-0.247 z"
       id="path23872"
       transform="scale(0.26458333)" />
  </g>
</svg>
